<svg width="1024" height="1024" viewBox="0 0 1024 1024" fill="none" xmlns="http://www.w3.org/2000/svg">
  <defs>
    <linearGradient id="tileFill" x1="220" y1="180" x2="804" y2="844" gradientUnits="userSpaceOnUse">
      <stop stop-color="#1F2937"/>
      <stop offset="1" stop-color="#0F172A"/>
    </linearGradient>
    <linearGradient id="accentFill" x1="512" y1="272" x2="512" y2="752" gradientUnits="userSpaceOnUse">
      <stop stop-color="#60A5FA"/>
      <stop offset="1" stop-color="#2563EB"/>
    </linearGradient>
    <filter id="shadow" x="100" y="112" width="824" height="824" filterUnits="userSpaceOnUse" color-interpolation-filters="sRGB">
      <feOffset dy="18"/>
      <feGaussianBlur stdDeviation="22"/>
      <feColorMatrix type="matrix" values="0 0 0 0 0.0588235 0 0 0 0 0.0941176 0 0 0 0 0.164706 0 0 0 0.22 0"/>
      <feBlend in2="SourceGraphic" result="shape"/>
    </filter>
  </defs>

  <rect width="1024" height="1024" rx="232" fill="transparent"/>

  <g filter="url(#shadow)">
    <rect x="156" y="138" width="712" height="712" rx="176" fill="url(#tileFill)"/>
    <rect x="156.5" y="138.5" width="711" height="711" rx="175.5" stroke="#E5E7EB" stroke-opacity="0.12"/>
    <path d="M248 214C314 166 405 138 512 138C618 138 708 166 772 214V302C705 251 618 224 512 224C405 224 315 251 248 302V214Z" fill="white" fill-opacity="0.05"/>
  </g>

  <g>
    <circle cx="512" cy="512" r="226" stroke="white" stroke-opacity="0.9" stroke-width="34"/>
    <circle cx="512" cy="286" r="30" fill="white"/>
    <circle cx="671.806" cy="352.194" r="30" fill="white"/>
    <circle cx="738" cy="512" r="30" fill="white"/>
    <circle cx="671.806" cy="671.806" r="30" fill="white"/>
    <circle cx="512" cy="738" r="30" fill="white"/>
    <circle cx="352.194" cy="671.806" r="30" fill="white"/>
    <circle cx="286" cy="512" r="30" fill="white"/>
    <circle cx="352.194" cy="352.194" r="30" fill="white"/>

    <path d="M512 318C525.255 318 536 328.745 536 342V466H597.088C618.474 466 629.307 491.867 614.254 507.189L528.447 594.537C519.087 604.069 503.913 604.069 494.553 594.537L408.746 507.189C393.693 491.867 404.526 466 425.912 466H488V342C488 328.745 498.745 318 512 318Z" fill="url(#accentFill)"/>

    <path d="M417 596.5L511.61 646L607 596.5V693.44C607 704.978 600.886 715.65 590.949 721.419L533.339 754.859C520.097 762.546 503.903 762.546 490.661 754.859L433.051 721.419C423.114 715.65 417 704.978 417 693.44V596.5Z" fill="white"/>
    <path d="M417 596L511.337 647.494C511.751 647.72 512.249 647.72 512.663 647.494L607 596" stroke="#0F172A" stroke-width="20" stroke-linecap="round" stroke-linejoin="round"/>
    <path d="M512 648V758" stroke="#0F172A" stroke-width="20" stroke-linecap="round"/>
  </g>
</svg>
